<?xml version="1.0" encoding="UTF-8"?>
<svg width="197px" height="135px" viewBox="0 0 197 135" version="1.1" xmlns="http://www.w3.org/2000/svg" xmlns:xlink="http://www.w3.org/1999/xlink">
    <title>video</title>
    <defs>
        <path d="M0,0 L197,0 L197,135 L0,135 L0,0 Z" id="path-1"></path>
    </defs>
    <g id="video" stroke="none" fill="none" xlink:href="#path-1" fill-rule="evenodd">
        <use fill="#ADC4FE" xlink:href="#path-1"></use>
        <rect id="Rectangle-Copy-10" fill="#FFFFFD" x="15" y="15" width="165" height="105" rx="8"></rect>
        <g id="Group" stroke-width="1" transform="translate(33, 27)" fill="#F2F6FD" stroke="#587FEA">
            <rect id="Rectangle-Copy-10" stroke-width="2.41404807" x="1.26247658" y="1.20702403" width="125.530499" height="77.5859519" rx="4.82809591"></rect>
        </g>
        <g id="Group" stroke-width="1" transform="translate(61, 44)" stroke="#587FEA">
            <path d="M68.5031539,8.66794698 L68.7165544,8.68002916 C69.497056,8.75144542 70.2503132,9.120613 70.7913271,9.77060441 C71.2492571,10.3207762 71.5,11.0139755 71.5,11.729789 L71.5,35.8405235 C71.5,36.6862096 71.157218,37.4518346 70.6030145,38.0060381 C70.048811,38.5602415 69.283186,38.9030235 68.4375,38.9030235 C67.7216866,38.9030235 67.0284872,38.6522806 66.4783154,38.1943507 L58.4939404,31.5486357 C57.794889,30.9667872 57.390625,30.1043252 57.390625,29.1948085 L57.390625,18.375504 C57.390625,17.4659873 57.794889,16.6035253 58.4939404,16.0216768 L66.4783154,9.37596184 C67.1283069,8.83494797 67.9360528,8.6086129 68.7165544,8.68002916 Z" id="Rectangle-Copy-14" stroke-width="3" fill="#ADC4FE"></path>
            <rect id="Rectangle-Copy-10" stroke-width="3" fill="#ADC4FE" x="1.5" y="1.5" width="58.59375" height="44" rx="4.5625"></rect>
            <path d="M33.0883477,16.9602578 C33.5588484,16.8169184 34.0840313,16.8530689 34.5523756,17.1026845 C34.8891995,17.2822031 35.1649435,17.557947 35.3444621,17.894771 L43.0174736,32.291351 C43.2670892,32.7596953 43.3032397,33.2848781 43.1599002,33.7553788 C43.0165608,34.2258795 42.6937313,34.6416981 42.2253871,34.8913137 C41.9471605,35.0396014 41.6367255,35.117164 41.321449,35.117164 L25.975426,35.117164 C25.4447149,35.117164 24.9642461,34.9020509 24.6164551,34.5542599 C24.2686642,34.2064689 24.053551,33.7260002 24.053551,33.195289 C24.053551,32.8800125 24.1311137,32.5695776 24.2794014,32.291351 L31.9524129,17.894771 C32.2020285,17.4264268 32.617847,17.1035973 33.0883477,16.9602578 Z" id="Triangle" stroke-width="3" fill="#F2F6FD" transform="translate(33.6484, 24.0703) rotate(90) translate(-33.6484, -24.0703)"></path>
        </g>
    </g>
</svg>