<?xml version="1.0" encoding="UTF-8"?>
<svg width="130px" height="89px" viewBox="0 0 130 89" version="1.1" xmlns="http://www.w3.org/2000/svg" xmlns:xlink="http://www.w3.org/1999/xlink">
    <title>Price Cards</title>
    <defs>
        <path d="M0,0 L130,0 L130,89 L0,89 L0,0 Z" id="path-1"></path>
        <rect id="path-2" x="-3.55271368e-15" y="0" width="42" height="55" rx="4.82809591"></rect>
        <rect id="path-4" x="-3.55271368e-15" y="0" width="42" height="55" rx="4.82809591"></rect>
    </defs>
    <g id="Price-Cards" stroke="none" fill="none" xlink:href="#path-1" fill-rule="evenodd">
        <use fill="#ADC4FE" xlink:href="#path-1"></use>
        <g id="Group" stroke-width="1" transform="translate(10, 4)">
            <rect id="Mask" fill="#FFFFFD" x="0" y="6" width="110" height="69" rx="8"></rect>
            <g transform="translate(9.0555, 13)" id="Group-Copy">
                <g id="Rectangle">
                    <mask id="mask-3" fill="white">
                        <use xlink:href="#path-2"></use>
                    </mask>
                    <rect stroke="#ADC4FE" stroke-width="2.41404807" x="1.20702403" y="1.20702403" width="39.5859519" height="52.5859519" rx="4.82809591"></rect>
                    <g id="close" mask="url(#mask-3)" fill="#2C5AD8" fill-rule="nonzero" stroke="#2B5AD8" stroke-width="0.65">
                        <g transform="translate(6, 36)" id="Path">
                            <polygon points="3 1.30214286 2.69785714 1 1.5 2.19785714 0.302142857 1 0 1.30214286 1.19785714 2.5 0 3.69785714 0.302142857 4 1.5 2.80214286 2.69785714 4 3 3.69785714 1.80214286 2.5"></polygon>
                        </g>
                    </g>
                    <g id="close-copy" mask="url(#mask-3)" fill="#2C5AD8" fill-rule="nonzero" stroke="#2B5AD8" stroke-width="0.65">
                        <g transform="translate(6, 43)" id="Path">
                            <polygon points="3 1.30214286 2.69785714 1 1.5 2.19785714 0.302142857 1 0 1.30214286 1.19785714 2.5 0 3.69785714 0.302142857 4 1.5 2.80214286 2.69785714 4 3 3.69785714 1.80214286 2.5"></polygon>
                        </g>
                    </g>
                    <g id="check-bold" mask="url(#mask-3)" fill="#2C5AD8" fill-rule="nonzero">
                        <g transform="translate(5, 29)" id="Path">
                            <polygon points="1.64112051 5 0 3.4015444 0.747885835 2.67310167 1.64112051 3.54568855 4.25211416 1 5 1.72844273"></polygon>
                        </g>
                    </g>
                </g>
                <line x1="15.9445474" y1="32" x2="32.9445474" y2="32" id="Line-Copy-10" stroke="#2C5AD8" stroke-width="4" stroke-linecap="round"></line>
                <text id="25" font-family="Helvetica-Bold, Helvetica" font-size="12" font-weight="bold" fill="#2C5AD8">
                    <tspan x="5.94454745" y="24">25</tspan>
                </text>
                <text id="/mo" font-family="Helvetica-Bold, Helvetica" font-size="8" font-weight="bold" fill="#2C5AD8">
                    <tspan x="20.9445474" y="24">/mo</tspan>
                </text>
                <line x1="15.9445474" y1="39" x2="32.9445474" y2="39" id="Line-Copy-11" stroke="#2C5AD8" stroke-width="4" stroke-linecap="round"></line>
                <line x1="15.9445474" y1="46" x2="32.9445474" y2="46" id="Line-Copy-12" stroke="#2C5AD8" stroke-width="4" stroke-linecap="round"></line>
            </g>
            <g id="Group-Copy" transform="translate(59.0555, 13)">
                <g id="Rectangle">
                    <mask id="mask-5" fill="white">
                        <use xlink:href="#path-4"></use>
                    </mask>
                    <rect stroke="#ADC4FE" stroke-width="2.41404807" x="1.20702403" y="1.20702403" width="39.5859519" height="52.5859519" rx="4.82809591"></rect>
                    <g id="star" mask="url(#mask-5)" fill="#2C5AD8" fill-rule="nonzero">
                        <g transform="translate(8, 8)" id="Path">
                            <polygon points="25 3.42947368 27.472 5 26.816 2.04 29 0.0484210526 26.124 -0.212631579 25 -3 23.876 -0.212631579 21 0.0484210526 23.18 2.04 22.528 5"></polygon>
                        </g>
                    </g>
                    <g id="check-bold" mask="url(#mask-5)" fill="#2C5AD8" fill-rule="nonzero">
                        <g transform="translate(5, 29)">
                            <polygon id="Path" points="2.64112051 5 1 3.4015444 1.74788584 2.67310167 2.64112051 3.54568855 5.25211416 1 6 1.72844273"></polygon>
                            <polygon id="Path-Copy" points="2.64112051 12 1 10.4015444 1.74788584 9.67310167 2.64112051 10.5456885 5.25211416 8 6 8.72844273"></polygon>
                            <polygon id="Path-Copy-2" points="2.64112051 19 1 17.4015444 1.74788584 16.6731017 2.64112051 17.5456885 5.25211416 15 6 15.7284427"></polygon>
                        </g>
                    </g>
                </g>
                <line x1="15.9445474" y1="32" x2="32.9445474" y2="32" id="Line-Copy-10" stroke="#2C5AD8" stroke-width="4" stroke-linecap="round"></line>
                <text id="99" font-family="Helvetica-Bold, Helvetica" font-size="12" font-weight="bold" fill="#2C5AD8">
                    <tspan x="5.94454745" y="24">99</tspan>
                </text>
                <text id="/mo" font-family="Helvetica-Bold, Helvetica" font-size="8" font-weight="bold" fill="#2C5AD8">
                    <tspan x="20.9445474" y="24">/mo</tspan>
                </text>
                <line x1="15.9445474" y1="39" x2="32.9445474" y2="39" id="Line-Copy-11" stroke="#2C5AD8" stroke-width="4" stroke-linecap="round"></line>
                <line x1="15.9445474" y1="46" x2="32.9445474" y2="46" id="Line-Copy-12" stroke="#2C5AD8" stroke-width="4" stroke-linecap="round"></line>
            </g>
        </g>
    </g>
</svg>