<?xml version="1.0" encoding="UTF-8"?>
<svg width="197px" height="135px" viewBox="0 0 197 135" version="1.1" xmlns="http://www.w3.org/2000/svg" xmlns:xlink="http://www.w3.org/1999/xlink">
    <title>image</title>
    <defs>
        <path d="M0,0 L197,0 L197,135 L0,135 L0,0 Z" id="path-1"></path>
    </defs>
    <g id="image" stroke="none" fill="none" xlink:href="#path-1" fill-rule="evenodd">
        <use fill="#ADC4FE" xlink:href="#path-1"></use>
        <rect id="Rectangle-Copy-10" fill="#FFFFFD" x="15" y="15" width="165" height="105" rx="8"></rect>
        <g id="Group" stroke-width="1" transform="translate(33, 27)">
            <rect id="Rectangle-Copy-10" stroke="#587FEA" stroke-width="2.41404807" fill="#F2F6FD" x="1.26247658" y="1.20702403" width="125.530499" height="77.5859519" rx="4.82809591"></rect>
            <path d="M90.6666667,13 C92.9957409,13 95.002942,14.3877399 95.9173348,16.3868934 C96.5080818,16.0812156 97.178524,15.9090909 97.8888889,15.9090909 C99.7756183,15.9090909 101.38072,17.1233165 101.975618,18.8180979 L102.909091,18.8181818 C105.720722,18.8181818 108,21.0974595 108,23.9090909 C108,26.7207224 105.720722,29 102.909091,29 L87.0909091,29 C84.2792776,29 82,26.7207224 82,23.9090909 C82,21.8783376 83.1890354,20.1252984 84.9088874,19.3081921 C84.8957222,19.1468781 84.8888889,18.9833335 84.8888889,18.8181818 C84.8888889,15.6048887 87.4756881,13 90.6666667,13 Z" id="Combined-Shape" fill="#ADC4FE"></path>
            <g transform="translate(16.3468, 15.7525)" fill="#ADC4FE">
                <circle id="Oval" cx="15.2550931" cy="20.5466079" r="12"></circle>
                <path d="M30.1867646,1.77070624 C31.2865329,1.39581878 32.5293158,1.44047874 33.6544402,1.99354412 C34.5549256,2.43618609 35.2834071,3.16466762 35.7260534,4.06516176 L56.6052261,46.5398525 L66.7004156,26.6256081 C67.2672738,25.5073694 68.2337234,24.7247589 69.3380181,24.3634226 C70.4423129,24.0020864 71.6844527,24.0620243 72.8026915,24.6288825 C73.663592,25.0652907 74.3630089,25.7647076 74.7994171,26.6256081 L89.7638518,56.1458842 C90.3307101,57.264123 90.390648,58.5062628 90.0293118,59.6105576 C89.6679755,60.7148523 88.885365,61.6813019 87.7671263,62.2481601 C87.1309063,62.5706731 86.4276466,62.7387411 85.7143511,62.7387411 L6.02629156,62.7387411 C4.77258261,62.7387411 3.63756217,62.2305752 2.81596898,61.408982 C1.99437578,60.5873888 1.48620982,59.4523683 1.48620982,58.1986594 C1.48620982,57.5042244 1.64551045,56.8190439 1.95185582,56.1958325 L27.5771776,4.06515297 C28.1302429,2.94002861 29.0869964,2.14559371 30.1867646,1.77070624 Z" id="Combined-Shape" stroke="#587FEA" stroke-width="3.01756008"></path>
                <path d="M21.999724,16.6380275 L30.6949629,25.7113201 L41.280471,15.125812" id="Path" stroke="#587FEA" stroke-width="3.02443089"></path>
                <path d="M64.2052843,32.4909968 L70.6322,38.9179125 L77.0591156,32.4909968" id="Path" stroke="#587FEA" stroke-width="3.02443089"></path>
            </g>
            <g transform="translate(50.073, 51.8595)" stroke="#587FEA" stroke-width="2.41404807">
                <line x1="11.8456562" y1="16.6737523" x2="11.8456562" y2="26.3299446" id="Line" stroke-linecap="square"></line>
                <path d="M8.11756455,7.00732194 C8.44369066,6.87548172 8.80605811,6.86383726 9.13997585,6.97446737 L18.4718438,10.0662037 C18.801598,10.1754544 19.0713442,10.3918297 19.2499427,10.6672999 C19.4285413,10.94277 19.5159921,11.2773349 19.4811555,11.6229647 L18.9590461,16.8030445 C18.9222212,17.1684002 18.7544874,17.492778 18.5042642,17.7302298 C18.254041,17.9676815 17.9213284,18.1182071 17.554546,18.1358583 L12.1930708,18.3938767 C11.8781207,18.4090335 11.5755953,18.3237892 11.322263,18.1616729 C11.0689307,17.9995567 10.8647915,17.7605686 10.7466134,17.4682378 L7.29832995,8.93840333 C7.14481594,8.55866394 7.15975489,8.15265059 7.3080072,7.80319359 C7.4562595,7.4537366 7.73782515,7.16083594 8.11756455,7.00732194 Z" id="Rectangle" fill="#F2F6FD" transform="translate(12.4492, 11.8457) rotate(45) translate(-12.4492, -11.8457)"></path>
            </g>
            <line x1="23.2661735" y1="68.5332717" x2="23.2661735" y2="78.189464" id="Line-Copy" stroke="#587FEA" stroke-width="2.41404807" stroke-linecap="square"></line>
            <line x1="54.371534" y1="68.5332717" x2="54.371534" y2="78.189464" id="Line-Copy-2" stroke="#587FEA" stroke-width="2.41404807" stroke-linecap="square"></line>
            <line x1="113.308688" y1="68.5332717" x2="113.308688" y2="78.189464" id="Line-Copy-3" stroke="#587FEA" stroke-width="2.41404807" stroke-linecap="square"></line>
            <path d="M19.5380819,58.8668413 C19.864208,58.7350011 20.2265754,58.7233566 20.5604932,58.8339867 L29.8923611,61.925723 C30.2221153,62.0349737 30.4918615,62.2513491 30.67046,62.5268192 C30.8490586,62.8022894 30.9365094,63.1368543 30.9016728,63.482484 L30.3795634,68.6625638 C30.3427386,69.0279195 30.1750047,69.3522974 29.9247815,69.5897491 C29.6745583,69.8272008 29.3418457,69.9777264 28.9750633,69.9953777 L23.6135881,70.253396 C23.298638,70.2685528 22.9961126,70.1833085 22.7427803,70.0211923 C22.489448,69.8590761 22.2853088,69.6200879 22.1671307,69.3277571 L18.7188473,60.7979227 C18.5653333,60.4181833 18.5802722,60.0121699 18.7285245,59.6627129 C18.8767768,59.3132559 19.1583425,59.0203553 19.5380819,58.8668413 Z" id="Rectangle-Copy-2" stroke="#587FEA" stroke-width="2.41404807" fill="#F2F6FD" transform="translate(23.8697, 63.7052) rotate(45) translate(-23.8697, -63.7052)"></path>
            <path d="M49.4364183,58.8668413 C49.7625444,58.7350011 50.1249119,58.7233566 50.4588296,58.8339867 L59.7906976,61.925723 C60.1204518,62.0349737 60.390198,62.2513491 60.5687965,62.5268192 C60.747395,62.8022894 60.8348459,63.1368543 60.8000092,63.482484 L60.2778999,68.6625638 C60.241075,69.0279195 60.0733412,69.3522974 59.823118,69.5897491 C59.5728947,69.8272008 59.2401821,69.9777264 58.8733998,69.9953777 L53.5119246,70.253396 C53.1969744,70.2685528 52.8944491,70.1833085 52.6411168,70.0211923 C52.3877845,69.8590761 52.1836452,69.6200879 52.0654671,69.3277571 L48.6171837,60.7979227 C48.4636697,60.4181833 48.4786087,60.0121699 48.626861,59.6627129 C48.7751133,59.3132559 49.0566789,59.0203553 49.4364183,58.8668413 Z" id="Rectangle-Copy-3" stroke="#587FEA" stroke-width="2.41404807" fill="#F2F6FD" transform="translate(53.768, 63.7052) rotate(45) translate(-53.768, -63.7052)"></path>
            <path d="M108.580596,58.8668413 C108.906722,58.7350011 109.269089,58.7233566 109.603007,58.8339867 L118.934875,61.925723 C119.264629,62.0349737 119.534376,62.2513491 119.712974,62.5268192 C119.891573,62.8022894 119.979023,63.1368543 119.944187,63.482484 L119.422077,68.6625638 C119.385253,69.0279195 119.217519,69.3522974 118.967296,69.5897491 C118.717072,69.8272008 118.38436,69.9777264 118.017577,69.9953777 L112.656102,70.253396 C112.341152,70.2685528 112.038627,70.1833085 111.785294,70.0211923 C111.531962,69.8590761 111.327823,69.6200879 111.209645,69.3277571 L107.761361,60.7979227 C107.607847,60.4181833 107.622786,60.0121699 107.771039,59.6627129 C107.919291,59.3132559 108.200857,59.0203553 108.580596,58.8668413 Z" id="Rectangle-Copy-4" stroke="#587FEA" stroke-width="2.41404807" fill="#F2F6FD" transform="translate(112.9122, 63.7052) rotate(45) translate(-112.9122, -63.7052)"></path>
        </g>
    </g>
</svg>