<?xml version="1.0" encoding="UTF-8"?>
<svg width="822.469916px" height="156.024742px" viewBox="0 0 822.469916 156.024742" version="1.1" xmlns="http://www.w3.org/2000/svg" xmlns:xlink="http://www.w3.org/1999/xlink" style="pointer-events: auto;">
    <title>ApostropheCMS Logo</title>
    <defs>
        <linearGradient x1="74.2601171%" y1="6.94053691%" x2="24.7447076%" y2="93.1750794%" id="linearGradient-1">
            <stop stop-color="#CC9300" offset="0%"/>
            <stop stop-color="#EA433A" offset="47%"/>
            <stop stop-color="#B327BF" offset="100%"/>
        </linearGradient>
        <linearGradient x1="69.6882051%" y1="-4.41158489%" x2="30.3121313%" y2="104.437787%" id="linearGradient-2">
            <stop stop-color="#CC9300" offset="0%"/>
            <stop stop-color="#EA433A" offset="26%"/>
            <stop stop-color="#B327BF" offset="47%"/>
            <stop stop-color="#6666FF" offset="76%"/>
            <stop stop-color="#00BF9A" offset="100%"/>
        </linearGradient>
        <linearGradient x1="7.60394767%" y1="102.823742%" x2="74.8675621%" y2="33.1082671%" id="linearGradient-3">
            <stop stop-color="#B327BF" offset="0%"/>
            <stop stop-color="#6666FF" offset="47%"/>
            <stop stop-color="#00C09A" offset="100%"/>
        </linearGradient>
    </defs>
    <g id="Logos---Outlines" stroke="none" stroke-width="1" fill="none" fill-rule="evenodd">
        <g id="ApostropheCMS-(Primary)" transform="translate(-159.9876, -244.9876)" fill-rule="nonzero">
            <g id="apostrophecms-primary" transform="translate(161, 246)">
                <g id="Type" transform="translate(183.6256, 41.7831)" fill="#212121">
                    <g id="CMS" transform="translate(462.2011, 1.1151)">
                        <path d="M51.6885865,20.5895256 C49.8844973,7.55999271 39.8617797,0 26.8608832,0 C11.5404434,0 1.13686838e-13,11.168171 1.13686838e-13,30.1254255 C1.13686838e-13,49.0540436 11.3972617,60.250851 26.8608832,60.250851 C40.8067788,60.250851 50.0563153,51.2304051 51.6885865,40.0335977 L40.9785968,39.9763251 C39.632689,46.8490457 34.0199672,50.7149511 27.0040649,50.7149511 C17.4968013,50.7149511 10.6813533,43.5845034 10.6813533,30.1254255 C10.6813533,16.8954382 17.4395286,9.53589989 27.0327012,9.53589989 C34.1631489,9.53589989 39.7472344,13.5736233 40.9785968,20.5895256 L51.6885865,20.5895256 Z" id="Path"/>
                        <polygon id="Path" points="60.5536343 0.801817408 60.5536343 59.4490336 70.7481699 59.4490336 70.7481699 19.0717998 71.2922603 19.0717998 87.5004264 59.2772155 95.1176918 59.2772155 111.325858 19.1577088 111.869948 19.1577088 111.869948 59.4490336 122.064484 59.4490336 122.064484 0.801817408 109.063587 0.801817408 91.6526952 43.29814 90.9654231 43.29814 73.5545308 0.801817408"/>
                        <path d="M164.605875,16.9240746 L174.829047,16.9240746 C174.628593,7.01590232 166.180874,0 153.695431,0 C141.381807,0 132.13227,6.92999331 132.160907,17.2963469 C132.160907,25.7154297 138.145901,30.5549705 147.796346,33.0463318 L154.468612,34.7645119 C160.797243,36.3681467 164.978148,38.3440539 165.006784,42.8972313 C164.978148,47.9085901 160.224516,51.2590415 153.294523,51.2590415 C146.650893,51.2590415 141.496352,48.2808625 141.066807,42.1240503 L130.614545,42.1240503 C131.04409,53.779039 139.720899,60.33676 153.380432,60.33676 C167.440873,60.33676 175.602228,53.3208576 175.630865,42.9831403 C175.602228,32.8172411 167.211782,28.1781546 158.391791,26.0877021 L152.893614,24.713158 C148.08271,23.5677045 142.870896,21.5345247 142.928169,16.6377112 C142.956805,12.2277155 146.90862,8.99180951 153.55225,8.99180951 C159.88088,8.99180951 164.061785,11.9413521 164.605875,16.9240746 Z" id="Path"/>
                    </g>
                    <g id="Apostrophe">
                        <path d="M9.85031119,61.6843409 L0,61.6843409 L22.1415986,0 L32.866773,0 L55.0083716,61.6843409 L45.15266,61.6843409 L39.5308541,45.3550183 L15.499119,45.3550183 L9.85031119,61.6843409 Z M18.2047144,37.5260394 L36.8306592,37.5260394 L27.7796057,11.2074595 L27.298971,11.2074595 L18.2047144,37.5260394 Z" id="Shape"/>
                        <path d="M62.46631,79.0369533 L62.46631,15.4251459 L71.2419436,15.4251459 L71.2419436,22.9238567 L71.9925978,22.9238567 C72.6685038,21.7577024 73.4264799,20.6413453 74.2607616,19.5832758 C75.3731405,18.1980475 76.7642822,17.0634642 78.3434564,16.2535233 C80.1003832,15.3006186 82.3991492,14.8241662 85.2397543,14.8241662 C88.7646405,14.7662887 92.2283701,15.7511985 95.1980733,17.6558093 C98.2200765,19.6671465 100.611316,22.4963044 102.094371,25.8150564 C103.775693,29.3704018 104.616353,33.6476448 104.616353,38.6467853 C104.616353,43.6459259 103.784693,47.9267783 102.121373,51.4893428 C100.668681,54.8310317 98.2973418,57.6891908 95.2844795,59.7298033 C92.3268167,61.6507024 88.865927,62.645832 85.3423617,62.5885176 C82.5341589,62.5885176 80.2551944,62.1174794 78.4892669,61.1754031 C76.8926944,60.3661162 75.477708,59.238595 74.3309667,57.8618934 C73.4607209,56.8060386 72.6820339,55.6775804 72.0033986,54.4888271 L71.4633596,54.4888271 L71.4633596,79.0369533 L62.46631,79.0369533 Z M71.2689456,38.5547434 C71.2689456,43.4167234 72.3112208,47.358284 74.3957714,50.3794253 C76.4803219,53.4005665 79.4541366,54.9111371 83.3172155,54.9111371 C85.747296,54.9898495 88.1299391,54.2248374 90.0623025,52.7454445 C91.9422174,51.2098848 93.3609982,49.1821438 94.1611984,46.8872459 C95.1186919,44.2121049 95.5870233,41.3857439 95.5436982,38.5439149 C95.5942471,35.7440658 95.1405486,32.9580401 94.2044015,30.3196971 C93.4086075,28.0628223 91.9979907,26.0746441 90.1325075,24.5806116 C88.1734088,23.1271763 85.7797261,22.3845119 83.3442174,22.4744755 C79.4199341,22.4744755 76.4299182,23.9453417 74.3741698,26.8870743 C72.3184214,29.8288068 71.2833466,33.7180298 71.2689456,38.5547434 L71.2689456,38.5547434 Z" id="Shape"/>
                        <path d="M133.438234,62.621003 C129.453342,62.7157069 125.5226,61.6817119 122.097415,59.6377614 C118.850605,57.6275268 116.244324,54.7290362 114.585473,51.283602 C112.803344,47.6993806 111.91228,43.5268128 111.91228,38.7658984 C111.91228,34.0049841 112.803344,29.8089546 114.585473,26.1778099 C116.250816,22.7330607 118.862562,19.8366231 122.113617,17.8290647 C125.539248,15.7867351 129.470032,14.7546052 133.454435,14.8512373 C137.803549,14.8512373 141.583822,15.8438465 144.795254,17.8290647 C148.038195,19.8486804 150.638669,22.7544756 152.290995,26.2048811 C154.091125,29.8143688 154.99119,34.0103983 154.99119,38.7929696 C154.99119,43.5755409 154.091125,47.7481087 152.290995,51.3106731 C150.636533,54.7539534 148.036078,57.6522151 144.795254,59.6648325 C141.573022,61.6320033 137.787348,62.6173935 133.438234,62.621003 Z M133.470637,55.0410787 C136.296841,55.0410787 138.624409,54.2975242 140.453341,52.8104153 C142.34446,51.2472749 143.760724,49.1840216 144.541436,46.8547605 C146.319831,41.5650727 146.319831,35.8367826 144.541436,30.5470948 C143.755299,28.2205558 142.339986,26.1586875 140.453341,24.59144 C138.624409,23.0971121 136.296841,22.3481434 133.470637,22.3445209 C130.644432,22.3409244 128.304264,23.0898931 126.45013,24.59144 C124.553769,26.1553603 123.128918,28.2175027 122.335033,30.5470948 C120.527496,35.8319521 120.527496,41.5699032 122.335033,46.8547605 C123.123482,49.1871003 124.549292,51.2506323 126.45013,52.8104153 C128.307864,54.3155717 130.648033,55.0663451 133.470637,55.0627486 L133.470637,55.0410787 Z" id="Shape"/>
                        <path d="M197.243841,26.7192331 L189.105453,28.1648329 C188.517154,26.5197418 187.518831,25.0529008 186.205444,23.9038326 C184.794142,22.6080265 182.68619,21.9601235 179.881587,21.9601235 C177.63272,21.8793376 175.410719,22.4711283 173.498327,23.6601922 C171.784603,24.7971808 170.938542,26.2590234 170.960143,28.0457198 C170.887548,29.4960882 171.519355,30.8920464 172.655866,31.7923681 C173.804349,32.7308349 175.653082,33.4996558 178.202066,34.0988308 L185.530395,35.788071 C193.944203,37.7335849 198.149306,41.9097623 198.145706,48.316603 C198.187392,50.9836383 197.348164,53.5896286 195.758734,55.7286861 C194.034151,57.9772087 191.743245,59.7245541 189.121655,60.7909927 C186.001145,62.0696741 182.652555,62.6943072 179.282144,62.6264172 C174.09417,62.6264172 169.878265,61.5164997 166.634431,59.2966648 C163.408842,57.1098179 161.233905,53.6782572 160.629197,49.8217594 L169.313024,48.4952727 C170.393102,53.0757126 173.698141,55.3641279 179.22814,55.3605184 C182.173153,55.3605184 184.525923,54.743296 186.28645,53.5088512 C188.046977,52.2744063 188.929041,50.7638357 188.932641,48.9771393 C188.932641,46.0281878 186.758084,44.0700407 182.40897,43.102698 L174.600006,41.3863865 C170.279694,40.4226533 167.095264,38.8561356 165.046716,36.6868335 C162.989902,34.4801071 161.888895,31.5462973 161.984695,28.5275864 C161.937685,25.9469011 162.738473,23.4223297 164.26366,21.3429011 C165.897024,19.2001039 168.07854,17.5405961 170.576716,16.5404776 C173.503618,15.3478202 176.641735,14.7639016 179.800582,14.8241662 C184.786942,14.8241662 188.711225,15.9070125 191.573432,18.0727052 C194.411861,20.2033753 196.417767,23.2620828 197.243841,26.7192331 L197.243841,26.7192331 Z" id="Path"/>
                        <path d="M228.863124,15.4251459 L228.863124,22.6531451 L219.401641,22.6531451 L219.401641,48.1000338 C219.401641,50.7096934 219.957881,52.3899099 221.070361,53.1406834 C222.209388,53.9056119 223.55558,54.3006753 224.92624,54.2722578 C225.561404,54.2806585 226.195974,54.2299078 226.821776,54.1206593 L228.080067,53.8824331 L229.700184,61.3215874 C228.968716,61.5804836 228.219763,61.7867477 227.459022,61.9388098 C226.277765,62.1705735 225.076827,62.2866232 223.873164,62.2853206 C221.599619,62.340879 219.340461,61.9089329 217.246885,61.0183904 C215.232249,60.1667928 213.509297,58.7442543 212.289327,56.9252313 C211.036437,55.0807831 210.411792,52.7616872 210.415392,49.9679437 L210.415392,22.6531451 L203.659504,22.6531451 L203.659504,15.4251459 L210.420792,15.4251459 L210.420792,4.34221376 L219.401641,4.34221376 L219.401641,15.4251459 L228.863124,15.4251459 Z" id="Path"/>
                        <path d="M238.097791,61.6843409 L238.097791,15.4251459 L246.781618,15.4251459 L246.781618,22.7722582 L247.262252,22.7722582 C248.045219,20.3626191 249.617083,18.2887747 251.722974,16.8869884 C253.867168,15.4435698 256.3986,14.6882366 258.981098,14.7212958 C259.55894,14.7212958 260.228588,14.7212958 260.990043,14.7808523 C261.751498,14.8404089 262.350942,14.8728943 262.793774,14.9324508 L262.793774,23.5464933 C262.16556,23.3940613 261.529041,23.2783626 260.887436,23.1999825 C259.966097,23.0694961 259.036721,23.0043636 258.106235,23.0050702 C255.189146,22.9092353 252.351428,23.9671134 250.205465,25.9504122 C248.135778,27.877706 246.997765,30.6076461 247.084039,33.4382945 L247.084039,61.6843409 L238.097791,61.6843409 Z" id="Path"/>
                        <path d="M287.25214,62.621003 C283.26735,62.7148254 279.336848,61.6808933 275.911321,59.6377614 C272.666118,57.627199 270.061663,54.7286569 268.404779,51.283602 C266.604649,47.6993806 265.704584,43.5268128 265.704584,38.7658984 C265.704584,34.0049841 266.604649,29.8089546 268.404779,26.1778099 C270.066443,22.7339891 272.674476,19.8375129 275.922121,17.8290647 C279.348208,15.7878268 283.278674,14.7557807 287.26294,14.8512373 C291.604854,14.8512373 295.385127,15.8438465 298.603759,17.8290647 C301.843928,19.8504016 304.442232,22.7558657 306.0941,26.2048811 C307.89423,29.8143688 308.794295,34.0103983 308.794295,38.7929696 C308.794295,43.5755409 307.89423,47.7481087 306.0941,51.3106731 C304.440097,54.7525615 301.841811,57.6504925 298.603759,59.6648325 C295.172644,61.7012895 291.238062,62.7259269 287.25214,62.621003 L287.25214,62.621003 Z M287.25214,55.0410787 C290.078344,55.0410787 292.405912,54.2975242 294.234844,52.8104153 C296.125963,51.2472749 297.542227,49.1840216 298.322939,46.8547605 C300.107325,41.5660594 300.107325,35.8357959 298.322939,30.5470948 C297.536802,28.2205558 296.121489,26.1586875 294.234844,24.59144 C292.402311,23.0971121 290.074743,22.3481434 287.25214,22.3445209 C284.429536,22.3409244 282.089367,23.0898931 280.231633,24.59144 C278.338631,26.1584582 276.914495,28.2195669 276.116536,30.5470948 C274.316376,35.8331824 274.316376,41.568673 276.116536,46.8547605 C276.908879,49.1851332 278.334001,51.2476688 280.231633,52.8104153 C282.107368,54.3155717 284.456538,55.0663451 287.279141,55.0627486 L287.25214,55.0410787 Z" id="Shape"/>
                        <path d="M316.90028,79.0369533 L316.90028,15.4251459 L325.675914,15.4251459 L325.675914,22.9238567 L326.421168,22.9238567 C327.097073,21.7577024 327.85505,20.6413453 328.689331,19.5832758 C329.802972,18.1993073 331.193825,17.0649597 332.772026,16.2535233 C334.528953,15.3006186 336.827719,14.8241662 339.668324,14.8241662 C343.198702,14.7630818 346.668522,15.7481207 349.642844,17.6558093 C352.664847,19.6671465 355.056087,22.4963044 356.539142,25.8150564 C358.216863,29.3704018 359.057524,33.6476448 359.061136,38.6467853 C359.064724,43.6459259 358.233064,47.9267783 356.566144,51.4893428 C355.110512,54.832423 352.735302,57.6907321 349.71845,59.7298033 C346.760787,61.6507024 343.299897,62.645832 339.776332,62.5885176 C336.968129,62.5885176 334.689164,62.1174794 332.923237,61.1754031 C331.326664,60.3661162 329.911678,59.238595 328.764937,57.8618934 C327.896484,56.8046792 327.117905,55.6763778 326.437369,54.4888271 L325.89733,54.4888271 L325.89733,79.0369533 L316.90028,79.0369533 Z M325.702916,38.5547434 C325.702916,43.4167234 326.745191,47.358284 328.829741,50.3794253 C330.914292,53.4005665 333.891707,54.9111371 337.761986,54.9111371 C340.192067,54.9898495 342.57471,54.2248374 344.507073,52.7454445 C346.388661,51.2114462 347.807803,49.1831892 348.605969,46.8872459 C349.563463,44.2121049 350.031794,41.3857439 349.988469,38.5439149 C350.034289,35.7385919 349.571338,32.9482633 348.62217,30.3088686 C347.826376,28.0519938 346.41576,26.0638156 344.550276,24.5697831 C342.589778,23.1202003 340.19622,22.3813926 337.761986,22.4744755 C333.837703,22.4744755 330.847687,23.9453417 328.791939,26.8870743 C326.73619,29.8288068 325.706516,33.7180298 325.702916,38.5547434 L325.702916,38.5547434 Z" id="Shape"/>
                        <path d="M376.407176,34.2179439 L376.407176,61.6843409 L367.420928,61.6843409 L367.420928,0.00541423163 L376.282968,0.00541423163 L376.282968,22.9563421 L376.855409,22.9563421 C377.87307,20.5165503 379.600763,18.4410235 381.812967,17.0006873 C384.034327,15.5568922 386.937937,14.8349947 390.523796,14.8349947 C395.268938,14.8349947 399.088814,16.3004467 401.983423,19.2313507 C404.878032,22.1622548 406.318136,26.5098828 406.303842,32.2742347 L406.303842,61.6843409 L397.322887,61.6843409 L397.322887,33.3462526 C397.322887,29.9497246 396.451624,27.3147985 394.709098,25.4414744 C392.966572,23.5681503 390.543597,22.6296834 387.440173,22.626074 C384.49729,22.5235368 381.637413,23.6145979 379.507,25.6526294 C377.436851,27.6558951 376.403576,30.511 376.407176,34.2179439 Z" id="Path"/>
                        <path d="M436.281299,62.6210115 C431.755773,62.6210115 427.851291,61.6374176 424.567854,59.6702467 C421.296251,57.6995173 418.668832,54.8151196 417.007308,51.3702297 C415.23598,47.8076652 414.350316,43.6369022 414.350316,38.8579404 C414.260776,34.5322515 415.170125,30.2443897 417.007308,26.3294084 C420.373766,19.0923298 427.72105,14.5657258 435.681856,14.8241662 C439.118257,14.8136562 442.508992,15.6132545 445.580771,17.1577 C448.800628,18.816992 451.448131,21.4090267 453.179119,24.5968543 C455.134061,27.9969917 456.109731,32.4889992 456.106141,38.0728768 L456.106141,41.2672734 L423.304162,41.2672734 C423.422971,45.7249908 424.683062,49.1540042 427.084435,51.5543135 C429.485809,53.9546229 432.600034,55.1601918 436.42711,55.1710203 C438.750146,55.23279 441.046216,54.6601087 443.069589,53.5142654 C444.94246,52.395602 446.357145,50.6452633 447.060478,48.5764861 L455.566092,50.1087137 C454.558662,53.8478862 452.203317,57.0793532 448.956014,59.1775517 C445.535768,61.4767954 441.310863,62.6246125 436.281299,62.6210115 Z M423.320364,34.5211408 L447.292694,34.5211408 C447.292694,30.9874523 446.232418,28.0601578 444.111865,25.7392571 C441.991312,23.4183565 439.19751,22.259711 435.73046,22.2633204 C433.49369,22.2135518 431.28901,22.8032238 429.374201,23.9633892 C427.58751,25.0714261 426.110347,26.6157118 425.080891,28.4517872 C424.024092,30.308073 423.415602,32.3866925 423.304162,34.5211408 L423.320364,34.5211408 Z" id="Shape"/>
                    </g>
                </g>
                <path d="M102.976136,147.322747 L73.5386105,151.995229 C53.4653612,155.184212 45.8508114,154.242135 37.8960371,151.453806 C30.0335155,148.757853 23.1617092,143.753025 18.1738131,137.08985 C13.0866458,130.354546 9.84101151,123.386429 6.66018185,103.256316 L1.99964536,73.7487539 C-1.18118429,53.6186407 -0.241516449,45.9845741 2.53968435,38.0148252 C5.22148388,30.1282768 10.2056077,23.2318399 16.8453172,18.2203944 C23.5634023,13.1201882 30.4921025,9.86623497 50.5869534,6.67725254 L80.0244787,2.00477065 C100.103128,-1.18421178 107.712278,-0.242135479 115.667052,2.54619381 C123.529724,5.23914095 130.404382,10.2376459 135.400077,16.8939076 C140.487244,23.6292118 143.727478,30.5973279 146.908308,50.727441 L151.568844,80.2350034 C154.749674,100.365117 153.815406,107.993769 151.028805,115.968932 C148.337949,123.850672 143.34627,130.739603 136.701571,135.741706 C130.005087,140.852741 123.054786,144.106694 102.976136,147.322747 Z" id="Shell" stroke="#CCCCCC" stroke-width="2" fill="#FEFEFE" style="pointer-events: auto;"/>
                <g id="Group-21" transform="translate(35.8977, 33.4992)">
                    <path d="M69.8056273,61.7873991 C77.4762381,60.6492395 83.7025913,54.9809514 85.5702269,47.4357732 C87.4378625,39.890595 84.5772323,31.9614878 78.3273533,27.3599446 C72.0774742,22.7584013 63.675007,22.3949272 57.0530172,26.4396589 C50.4310274,30.4843907 46.8998051,38.136999 48.112261,45.8154159 C48.8762217,50.8176008 51.5910047,55.3106181 55.6593412,58.3059763 C59.7276776,61.3013344 64.816281,62.5536476 69.8056273,61.7873991 Z M68.8497583,55.7180455 C63.6524476,56.621904 58.4256271,54.2872059 55.6202082,49.808716 C52.8147893,45.330226 52.9870957,39.5960433 56.0563312,35.2949869 C59.1255667,30.9939304 64.4830918,28.9789138 69.6167062,30.1947997 C74.7503207,31.4106855 78.642012,35.6163597 79.4669248,40.839737 C80.6306241,47.8870549 75.8782899,54.5467126 68.8497583,55.7180455 L68.8497583,55.7180455 Z" id="Oval-Copy-84" fill="url(#linearGradient-1)" style="pointer-events: auto;"/>
                    <path d="M8.04676832,39.1071829 L36.4258173,34.6025422 C37.2288979,34.4760611 37.9488501,34.0346056 38.4269921,33.3754752 C38.9051342,32.7163447 39.1022166,31.8936457 38.9748013,31.0887058 L34.4708761,2.58819056 C34.3434419,1.78404357 33.9025776,1.06359285 33.2452801,0.585348458 C32.5879826,0.107104062 31.7681016,-0.08975348 30.9660231,0.0380874626 L2.58157374,4.54814241 C1.77948258,4.67590331 1.06087373,5.11789756 0.58385199,5.77687975 C0.106830246,6.43586195 -0.0895240214,7.25784446 0.0379900904,8.06197873 L4.54191527,36.562494 C4.80991607,38.2348544 6.37831942,39.3735893 8.04676832,39.1071829 L8.04676832,39.1071829 Z M10.1097173,32.5667911 L6.56706149,10.1356294 L28.8976738,6.58930773 L32.4457299,29.0258836 L10.1097173,32.5667911 Z" id="Rectangle-Copy-64" fill="url(#linearGradient-2)"/>
                    <path d="M26.0678694,49.464608 L13.7549805,84.0453054 C13.3904215,85.0665668 13.590487,86.2048994 14.2812599,87.0397311 C14.9720328,87.8745628 16.0509622,88.2819557 17.1194234,88.1113933 L51.7737254,82.610534 C52.8406848,82.4383175 53.7385285,81.7159116 54.1372153,80.7088679 C54.535902,79.7018242 54.3765993,78.5587478 53.7178658,77.6998259 L31.3764527,48.6362305 C30.6946971,47.7464655 29.5830778,47.300459 28.477272,47.4730144 C27.3714663,47.6455698 26.4476403,48.4091972 26.0678694,49.464608 L26.0678694,49.464608 Z M29.9507498,56.8225487 L45.7144879,77.3316581 L21.2615224,81.2190764 L29.9507498,56.8225487 Z" id="Triangle-Copy-15" fill="url(#linearGradient-3)"/>
                </g>
            </g>
        </g>
    </g>
<script xmlns=""/></svg>