<?xml version="1.0" encoding="UTF-8"?>
<svg width="130px" height="89px" viewBox="0 0 130 89" version="1.1" xmlns="http://www.w3.org/2000/svg" xmlns:xlink="http://www.w3.org/1999/xlink">
    <title>Articles</title>
    <defs>
        <path d="M0,0 L130,0 L130,89 L0,89 L0,0 Z" id="path-1"></path>
        <rect id="path-2" x="-3.55271368e-15" y="0" width="42" height="55" rx="4.82809591"></rect>
        <rect id="path-4" x="-3.55271368e-15" y="0" width="42" height="55" rx="4.82809591"></rect>
    </defs>
    <g id="Articles" stroke="none" fill="none" xlink:href="#path-1" fill-rule="evenodd">
        <use fill="#ADC4FE" xlink:href="#path-1"></use>
        <g id="Group" stroke-width="1" transform="translate(10, 4)">
            <rect id="Mask" fill="#FFFFFD" x="0" y="6" width="110" height="69" rx="8"></rect>
            <g transform="translate(9.0555, 13)">
                <g id="Group-Copy">
                    <g id="Rectangle">
                        <mask id="mask-3" fill="white">
                            <use xlink:href="#path-2"></use>
                        </mask>
                        <rect stroke="#ADC4FE" stroke-width="2.41404807" x="1.20702403" y="1.20702403" width="39.5859519" height="52.5859519" rx="4.82809591"></rect>
                        <rect fill="#ADC4FE" mask="url(#mask-3)" x="1" y="2" width="40" height="23"></rect>
                    </g>
                    <line x1="9.44454745" y1="32" x2="32.9445474" y2="32" id="Line-Copy-10" stroke="#2C5AD8" stroke-width="4" stroke-linecap="round"></line>
                    <line x1="9.44454745" y1="39" x2="32.9445474" y2="39" id="Line-Copy-11" stroke="#2C5AD8" stroke-width="4" stroke-linecap="round"></line>
                    <line x1="9.44454745" y1="46" x2="32.9445474" y2="46" id="Line-Copy-12" stroke="#2C5AD8" stroke-width="4" stroke-linecap="round"></line>
                </g>
                <g id="Group-Copy-2" transform="translate(49, 0)">
                    <g id="Rectangle">
                        <mask id="mask-5" fill="white">
                            <use xlink:href="#path-4"></use>
                        </mask>
                        <rect stroke="#ADC4FE" stroke-width="2.41404807" x="1.20702403" y="1.20702403" width="39.5859519" height="52.5859519" rx="4.82809591"></rect>
                        <rect fill="#ADC4FE" mask="url(#mask-5)" x="1" y="2" width="40" height="23"></rect>
                    </g>
                    <line x1="9.44454745" y1="32" x2="32.9445474" y2="32" id="Line-Copy-10" stroke="#2C5AD8" stroke-width="4" stroke-linecap="round"></line>
                    <line x1="9.44454745" y1="39" x2="32.9445474" y2="39" id="Line-Copy-11" stroke="#2C5AD8" stroke-width="4" stroke-linecap="round"></line>
                    <line x1="9.44454745" y1="46" x2="32.9445474" y2="46" id="Line-Copy-12" stroke="#2C5AD8" stroke-width="4" stroke-linecap="round"></line>
                </g>
            </g>
        </g>
    </g>
</svg>