<?xml version="1.0" encoding="UTF-8"?>
<svg width="137px" height="89px" viewBox="0 0 137 89" version="1.1" xmlns="http://www.w3.org/2000/svg" xmlns:xlink="http://www.w3.org/1999/xlink">
    <title>Bitmap</title>
    <defs>
        <rect id="path-1" x="0" y="0" width="137" height="89" rx="3"></rect>
    </defs>
    <g id="Widget-Preview" stroke="none" stroke-width="1" fill="none" fill-rule="evenodd">
        <g id="Group-Copy" transform="translate(-31.000000, -1172.000000)">
            <g id="Group-6" transform="translate(30.000000, 462.000000)">
                <g id="Group-8" transform="translate(0.000000, 512.000000)">
                    <g id="Group-5-Copy-8" transform="translate(0.000000, 198.000000)">
                        <g id="Bitmap" transform="translate(1.000000, 0.000000)">
                            <mask id="mask-2" fill="white">
                                <use xlink:href="#path-1"></use>
                            </mask>
                            <use id="Mask" fill="#F9F9F9" fill-rule="nonzero" xlink:href="#path-1"></use>
                            <g id="Group" mask="url(#mask-2)">
                                <g transform="translate(45.000000, 21.000000)">
                                    <path d="M42,10 L43,10 C43.794,10.00524 44.554,10.323 45.1156,10.88448 C45.677,11.44594 45.9948,12.20596 46,13 L46,39 C45.9948,39.794 45.677,40.554 45.1156,41.1156 C44.554,41.677 43.794,41.9948 43,42 L3,42 C2.20596,41.9948 1.44594,41.677 0.884472,41.1156 C0.322994,40.554 0.005242,39.794 0,39 L0,13 C0.005242,12.20596 0.322994,11.44594 0.884472,10.88448 C1.44594,10.323 2.20596,10.00524 3,10 L4,10" id="Path" stroke="#000000" stroke-width="2" stroke-linecap="round" stroke-linejoin="round"></path>
                                    <line x1="13" y1="46" x2="33" y2="46" id="Path" stroke="#000000" stroke-width="2" stroke-linecap="round" stroke-linejoin="round"></line>
                                    <line x1="23" y1="42" x2="23" y2="46" id="Path" stroke="#000000" stroke-width="2" stroke-linecap="round" stroke-linejoin="round"></line>
                                    <path d="M8,30 L8,2 C8,1.46956 8.21072,0.96086 8.58578,0.585786 C8.96086,0.210714 9.46956,0 10,0 L36,0 C36.5304,0 37.0392,0.210714 37.4142,0.585786 C37.7892,0.96086 38,1.46956 38,2 L38,30" id="Path" stroke="#000000" stroke-width="2" stroke-linecap="round" stroke-linejoin="round"></path>
                                    <path d="M19,14 L13,14 C12.44772,14 12,14.44772 12,15 L12,20 C12,20.5522 12.44772,21 13,21 L19,21 C19.5522,21 20,20.5522 20,20 L20,15 C20,14.44772 19.5522,14 19,14 Z" id="Path" stroke="#000000" stroke-width="2" stroke-linecap="round" stroke-linejoin="round"></path>
                                    <line x1="24.2" y1="20" x2="34" y2="20" id="Path" stroke="#000000" stroke-width="2" stroke-linecap="round" stroke-linejoin="round"></line>
                                    <line x1="24.2" y1="14" x2="34" y2="14" id="Path" stroke="#000000" stroke-width="2" stroke-linecap="round" stroke-linejoin="round"></line>
                                    <line x1="12" y1="26" x2="34" y2="26" id="Path" stroke="#000000" stroke-width="2" stroke-linecap="round" stroke-linejoin="round"></line>
                                    <line x1="0" y1="36" x2="46" y2="36" id="Path" stroke="#000000" stroke-width="2" stroke-linecap="round" stroke-linejoin="round"></line>
                                    <line x1="8" y1="9" x2="38" y2="9" id="Path" stroke="#000000" stroke-width="2" stroke-linecap="round" stroke-linejoin="round"></line>
                                    <g id="Group" stroke="none" stroke-width="1" fill-rule="evenodd" transform="translate(11.250000, 3.500000)">
                                        <path d="M1.25,1.5 C0.97386,1.5 0.75,1.27614 0.75,1 C0.75,0.72386 0.97386,0.5 1.25,0.5" id="Path" stroke="#000000" stroke-width="2"></path>
                                        <path d="M1.25,1.5 C1.52614,1.5 1.75,1.27614 1.75,1 C1.75,0.72386 1.52614,0.5 1.25,0.5" id="Path" stroke="#000000" stroke-width="2"></path>
                                    </g>
                                    <g id="Group" stroke="none" stroke-width="1" fill-rule="evenodd" transform="translate(16.250000, 3.500000)">
                                        <path d="M1.25,1.5 C0.97386,1.5 0.75,1.27614 0.75,1 C0.75,0.72386 0.97386,0.5 1.25,0.5" id="Path" stroke="#000000" stroke-width="2"></path>
                                        <path d="M1.25,1.5 C1.52614,1.5 1.75,1.27614 1.75,1 C1.75,0.72386 1.52614,0.5 1.25,0.5" id="Path" stroke="#000000" stroke-width="2"></path>
                                    </g>
                                    <g id="Group" stroke="none" stroke-width="1" fill-rule="evenodd" transform="translate(21.250000, 3.500000)">
                                        <path d="M1.25,1.5 C0.9738,1.5 0.75,1.27614 0.75,1 C0.75,0.72386 0.9738,0.5 1.25,0.5" id="Path" stroke="#000000" stroke-width="2"></path>
                                        <path d="M1.25,1.5 C1.5262,1.5 1.75,1.27614 1.75,1 C1.75,0.72386 1.5262,0.5 1.25,0.5" id="Path" stroke="#000000" stroke-width="2"></path>
                                    </g>
                                </g>
                            </g>
                        </g>
                    </g>
                </g>
            </g>
        </g>
    </g>
</svg>