<?xml version="1.0" encoding="UTF-8"?>
<svg width="130px" height="89px" viewBox="0 0 130 89" version="1.1" xmlns="http://www.w3.org/2000/svg" xmlns:xlink="http://www.w3.org/1999/xlink">
    <title>Rich Text</title>
    <defs>
        <path d="M0,0 L130,0 L130,89 L0,89 L0,0 Z" id="path-1"></path>
    </defs>
    <g id="Rich-Text" stroke="none" fill="none" xlink:href="#path-1" fill-rule="evenodd">
        <use fill="#ADC4FE" xlink:href="#path-1"></use>
        <g id="Group" stroke-width="1" transform="translate(10, 4)">
            <rect id="Mask" fill="#FFFFFD" x="0" y="6" width="110" height="69" rx="8"></rect>
            <line x1="12.5" y1="49.5" x2="88.5" y2="49.5" id="Line-Copy-10" stroke="#ADC4FE" stroke-width="4" stroke-linecap="round"></line>
            <line x1="12.5" y1="57.5" x2="71" y2="57.5" id="Line-Copy-11" stroke="#ADC4FE" stroke-width="4" stroke-linecap="round"></line>
            <line x1="12.5" y1="65.5" x2="48" y2="65.5" id="Line-Copy-12" stroke="#ADC4FE" stroke-width="4" stroke-linecap="round"></line>
        </g>
        <g id="Group" stroke-width="1" transform="translate(19, 16)">
            <rect id="Rectangle-Copy-2" fill="#2C5AD8" x="0" y="0" width="91" height="30" rx="4.78947353"></rect>
            <g id="Group-Copy-4" transform="translate(4.8165, 4.0461)">
                <rect id="Rectangle-Copy" fill="#7A9AEE" x="0" y="0" width="22.3508772" height="22.1052632" rx="3.8424027"></rect>
                <g id="format-size" transform="translate(3.193, 4.7368)" fill="#FFFFFD" fill-rule="nonzero">
                    <path d="M0,0 L0,2.36842105 L3.99122807,2.36842105 L3.99122807,11.8421053 L6.38596491,11.8421053 L6.38596491,2.36842105 L10.377193,2.36842105 L10.377193,0 L0,0 M15.1666667,3.94736842 L7.98245614,3.94736842 L7.98245614,6.31578947 L10.377193,6.31578947 L10.377193,11.8421053 L12.7719298,11.8421053 L12.7719298,6.31578947 L15.1666667,6.31578947 L15.1666667,3.94736842 Z" id="Shape"></path>
                </g>
            </g>
            <g id="Group-Copy-7" transform="translate(33.5534, 4.0461)">
                <rect id="Rectangle-Copy" fill="#ADC4FE" opacity="0.599823589" x="0" y="0" width="22.3508772" height="22.1052632" rx="3.8424027"></rect>
                <polygon id="Path" fill="#FFFFFD" fill-rule="nonzero" points="9.57894737 6.31578947 9.57894737 8.68421053 11.3430702 8.68421053 8.61307018 15 6.38596491 15 6.38596491 17.3684211 12.7719298 17.3684211 12.7719298 15 11.007807 15 13.737807 8.68421053 15.9649123 8.68421053 15.9649123 6.31578947"></polygon>
            </g>
            <g id="Group-Copy-8" transform="translate(62.2902, 4.0461)">
                <rect id="Rectangle-Copy" fill="#7A9AEE" x="0" y="0" width="22.3508772" height="22.1052632" rx="3.8424027"></rect>
                <path d="M7.76959064,10.6086606 C6.91812865,8.90997609 8.12436647,6.91586823 9.82729045,6.54658899 C12.0269006,5.80803053 15.219883,6.84201238 15.1489279,9.64853455 L13.0202729,9.64853455 C13.0202729,9.42696701 12.9493177,9.20539947 12.9493177,9.05768778 C12.8074074,8.6145527 12.5235867,8.39298516 12.0978558,8.24527347 C11.5302144,8.02370593 10.6077973,8.09756177 10.1111111,8.46684101 C9.04678363,9.42696701 10.0401559,10.387093 11.1754386,10.7563723 L7.91150097,10.7563723 C7.84054581,10.6825164 7.84054581,10.6086606 7.76959064,10.6086606 M17.5614035,12.9720477 L17.5614035,11.4949307 L4.78947368,11.4949307 L4.78947368,12.9720477 L11.6011696,12.9720477 C11.7430799,13.0459035 11.8849903,13.0459035 12.0269006,13.1197593 C12.4526316,13.3413269 12.8074074,13.4890386 12.9493177,13.9321737 C13.0202729,14.227597 13.0912281,14.5968763 12.9493177,14.8922997 C12.8074074,15.2615789 12.5235867,15.4092906 12.1688109,15.5570023 C10.8916179,15.9262815 9.33060429,15.4092906 9.40155945,13.784462 L7.27290448,13.784462 C7.20194932,15.704714 8.76296296,17.0341192 10.4658869,17.2556868 C13.1621832,17.8465335 16.3551657,16.0739932 14.9360624,12.8981918 L17.5614035,12.9720477 Z" id="Shape" fill="#FFFFFD" fill-rule="nonzero"></path>
            </g>
        </g>
    </g>
</svg>