<?xml version="1.0" encoding="UTF-8"?>
<svg width="137px" height="89px" viewBox="0 0 137 89" version="1.1" xmlns="http://www.w3.org/2000/svg" xmlns:xlink="http://www.w3.org/1999/xlink">
    <title>Bitmap</title>
    <defs>
        <rect id="path-1" x="0" y="0" width="137" height="89" rx="3"></rect>
    </defs>
    <g id="Widget-Preview" stroke="none" stroke-width="1" fill="none" fill-rule="evenodd">
        <g id="Group-Copy" transform="translate(-31.000000, -999.000000)">
            <g id="Group-6" transform="translate(30.000000, 462.000000)">
                <g id="Group-8" transform="translate(0.000000, 512.000000)">
                    <g id="Bitmap" transform="translate(1.000000, 25.000000)">
                        <mask id="mask-2" fill="white">
                            <use xlink:href="#path-1"></use>
                        </mask>
                        <use id="Mask" fill="#F3F5F6" fill-rule="nonzero" xlink:href="#path-1"></use>
                        <rect id="Rectangle" stroke="#000000" stroke-width="1.5" fill="#FFFFFF" mask="url(#mask-2)" x="6.75" y="31.75" width="123.5" height="26.5" rx="5"></rect>
                        <g id="Click-to-Learn-More" mask="url(#mask-2)" fill="#000000" fill-rule="nonzero">
                            <g transform="translate(21.571289, 41.333984)">
                                <path d="M3.23730469,7.84179688 C4.86328125,7.84179688 6.03027344,6.89941406 6.21582031,5.48828125 L6.21582031,5.45410156 L4.98046875,5.45410156 L4.97558594,5.47851562 C4.79492188,6.25488281 4.13085938,6.75292969 3.23730469,6.75292969 C2.03613281,6.75292969 1.2890625,5.75195312 1.2890625,4.14550781 L1.2890625,4.13574219 C1.2890625,2.53417969 2.03613281,1.53320312 3.23242188,1.53320312 C4.12109375,1.53320312 4.79492188,2.08496094 4.97558594,2.91992188 L4.98046875,2.93945312 L6.21582031,2.93945312 L6.21582031,2.90039062 C6.04980469,1.45996094 4.83398438,0.444335938 3.23242188,0.444335938 C1.23535156,0.444335938 0,1.85546875 0,4.140625 L0,4.15039062 C0,6.42578125 1.24023438,7.84179688 3.23730469,7.84179688 Z" id="Path"></path>
                                <polygon id="Path" points="7.5390625 7.66601562 8.75488281 7.66601562 8.75488281 0.263671875 7.5390625 0.263671875"></polygon>
                                <path d="M10.9130859,1.43554688 C11.3085938,1.43554688 11.6357422,1.11816406 11.6357422,0.717773438 C11.6357422,0.322265625 11.3085938,0 10.9130859,0 C10.5126953,0 10.1855469,0.322265625 10.1855469,0.717773438 C10.1855469,1.11816406 10.5126953,1.43554688 10.9130859,1.43554688 Z M10.3027344,7.66601562 L11.5185547,7.66601562 L11.5185547,2.32910156 L10.3027344,2.32910156 L10.3027344,7.66601562 Z" id="Shape"></path>
                                <path d="M15.3027344,7.7734375 C16.6552734,7.7734375 17.4414062,7.04589844 17.6171875,5.95214844 L17.6269531,5.91308594 L16.4794922,5.91796875 L16.4697266,5.9375 C16.3183594,6.49902344 15.9326172,6.78710938 15.3027344,6.78710938 C14.4775391,6.78710938 13.984375,6.12304688 13.984375,4.99023438 L13.984375,4.98046875 C13.984375,3.86230469 14.4726562,3.20800781 15.3027344,3.20800781 C15.9667969,3.20800781 16.3623047,3.57910156 16.4746094,4.09667969 L16.4794922,4.11132812 L17.6269531,4.11132812 L17.6269531,4.09179688 C17.4902344,2.98828125 16.6699219,2.2265625 15.2978516,2.2265625 C13.6914062,2.2265625 12.7490234,3.25683594 12.7490234,4.98046875 L12.7490234,4.99023438 C12.7490234,6.73339844 13.6962891,7.7734375 15.3027344,7.7734375 Z" id="Path"></path>
                                <polygon id="Path" points="18.8330078 7.66601562 20.0488281 7.66601562 20.0488281 5.79101562 20.4736328 5.35644531 22.1875 7.66601562 23.6523438 7.66601562 21.3574219 4.58496094 23.5058594 2.32910156 22.0996094 2.32910156 20.1318359 4.51660156 20.0488281 4.51660156 20.0488281 0.263671875 18.8330078 0.263671875"></polygon>
                                <path d="M29.3457031,7.69042969 C29.5800781,7.69042969 29.8046875,7.67089844 29.9804688,7.63671875 L29.9804688,6.69921875 C29.8339844,6.71386719 29.7412109,6.71875 29.5703125,6.71875 C29.0625,6.71875 28.8525391,6.49414062 28.8525391,5.96191406 L28.8525391,3.27148438 L29.9804688,3.27148438 L29.9804688,2.32910156 L28.8525391,2.32910156 L28.8525391,1.02050781 L27.6171875,1.02050781 L27.6171875,2.32910156 L26.7871094,2.32910156 L26.7871094,3.27148438 L27.6171875,3.27148438 L27.6171875,6.25 C27.6171875,7.28027344 28.1201172,7.69042969 29.3457031,7.69042969 Z" id="Path"></path>
                                <path d="M33.4960938,7.7734375 C35.0927734,7.7734375 36.0644531,6.72851562 36.0644531,5 L36.0644531,4.99023438 C36.0644531,3.27148438 35.0878906,2.2265625 33.4960938,2.2265625 C31.9091797,2.2265625 30.9277344,3.27636719 30.9277344,4.99023438 L30.9277344,5 C30.9277344,6.72851562 31.8945312,7.7734375 33.4960938,7.7734375 Z M33.4960938,6.78710938 C32.6513672,6.78710938 32.1679688,6.12792969 32.1679688,5.00488281 L32.1679688,4.99511719 C32.1679688,3.87207031 32.6513672,3.20800781 33.4960938,3.20800781 C34.3359375,3.20800781 34.8193359,3.87207031 34.8193359,4.99511719 L34.8193359,5.00488281 C34.8193359,6.12792969 34.3408203,6.78710938 33.4960938,6.78710938 Z" id="Shape"></path>
                                <polygon id="Path" points="40.0732422 7.66601562 44.5654297 7.66601562 44.5654297 6.60644531 41.3330078 6.60644531 41.3330078 0.620117188 40.0732422 0.620117188"></polygon>
                                <path d="M48.0810547,7.7734375 C49.53125,7.7734375 50.2441406,6.93847656 50.4150391,6.25 L50.4296875,6.20605469 L49.2724609,6.20605469 L49.2578125,6.24023438 C49.140625,6.484375 48.7646484,6.81640625 48.1054688,6.81640625 C47.2802734,6.81640625 46.7626953,6.25976562 46.7480469,5.30273438 L50.4785156,5.30273438 L50.4785156,4.90234375 C50.4785156,3.29101562 49.5410156,2.2265625 48.0224609,2.2265625 C46.5039062,2.2265625 45.5322266,3.32519531 45.5322266,5.00488281 L45.5322266,5.00976562 C45.5322266,6.70898438 46.4941406,7.7734375 48.0810547,7.7734375 Z M48.0371094,3.17871094 C48.7158203,3.17871094 49.2089844,3.61328125 49.2919922,4.48730469 L46.7578125,4.48730469 C46.8505859,3.63769531 47.3583984,3.17871094 48.0371094,3.17871094 Z" id="Shape"></path>
                                <path d="M53.1494141,7.75390625 C53.8525391,7.75390625 54.4189453,7.45117188 54.7119141,6.93359375 L54.7949219,6.93359375 L54.7949219,7.66601562 L55.9960938,7.66601562 L55.9960938,4.01855469 C55.9960938,2.890625 55.2246094,2.2265625 53.8525391,2.2265625 C52.5830078,2.2265625 51.7236328,2.82226562 51.6064453,3.72070312 L51.6015625,3.76464844 L52.7490234,3.76464844 L52.7539062,3.74511719 C52.8759766,3.39355469 53.2373047,3.19335938 53.7939453,3.19335938 C54.4482422,3.19335938 54.7949219,3.48632812 54.7949219,4.01855469 L54.7949219,4.47753906 L53.4228516,4.56054688 C52.1240234,4.63867188 51.3964844,5.1953125 51.3964844,6.14746094 L51.3964844,6.15722656 C51.3964844,7.12890625 52.1337891,7.75390625 53.1494141,7.75390625 Z M52.5976562,6.09863281 L52.5976562,6.08886719 C52.5976562,5.64941406 52.9150391,5.40039062 53.59375,5.35644531 L54.7949219,5.27832031 L54.7949219,5.70800781 C54.7949219,6.34277344 54.2529297,6.82128906 53.5205078,6.82128906 C52.9833984,6.82128906 52.5976562,6.55273438 52.5976562,6.09863281 Z" id="Shape"></path>
                                <path d="M57.4511719,7.66601562 L58.6669922,7.66601562 L58.6669922,4.56542969 C58.6669922,3.80371094 59.1992188,3.3203125 60.0097656,3.3203125 C60.2197266,3.3203125 60.4199219,3.34960938 60.6152344,3.38867188 L60.6152344,2.29980469 C60.4980469,2.265625 60.3076172,2.24121094 60.1220703,2.24121094 C59.4189453,2.24121094 58.9306641,2.578125 58.75,3.14941406 L58.6669922,3.14941406 L58.6669922,2.32910156 L57.4511719,2.32910156 L57.4511719,7.66601562 Z" id="Path"></path>
                                <path d="M61.6064453,7.66601562 L62.8222656,7.66601562 L62.8222656,4.55566406 C62.8222656,3.75488281 63.2714844,3.24707031 63.9941406,3.24707031 C64.7314453,3.24707031 65.0683594,3.66699219 65.0683594,4.49707031 L65.0683594,7.66601562 L66.2841797,7.66601562 L66.2841797,4.21386719 C66.2841797,2.94433594 65.6347656,2.2265625 64.4433594,2.2265625 C63.671875,2.2265625 63.1591797,2.57324219 62.9052734,3.14453125 L62.8222656,3.14453125 L62.8222656,2.32910156 L61.6064453,2.32910156 L61.6064453,7.66601562 Z" id="Path"></path>
                                <polygon id="Path" points="70.5078125 7.66601562 71.6455078 7.66601562 71.6455078 2.65625 71.7285156 2.65625 73.6816406 7.66601562 74.5410156 7.66601562 76.4941406 2.65625 76.5820312 2.65625 76.5820312 7.66601562 77.7148438 7.66601562 77.7148438 0.620117188 76.2695312 0.620117188 74.1552734 6.04003906 74.0722656 6.04003906 71.953125 0.620117188 70.5078125 0.620117188"></polygon>
                                <path d="M81.6308594,7.7734375 C83.2275391,7.7734375 84.1992188,6.72851562 84.1992188,5 L84.1992188,4.99023438 C84.1992188,3.27148438 83.2226562,2.2265625 81.6308594,2.2265625 C80.0439453,2.2265625 79.0625,3.27636719 79.0625,4.99023438 L79.0625,5 C79.0625,6.72851562 80.0292969,7.7734375 81.6308594,7.7734375 Z M81.6308594,6.78710938 C80.7861328,6.78710938 80.3027344,6.12792969 80.3027344,5.00488281 L80.3027344,4.99511719 C80.3027344,3.87207031 80.7861328,3.20800781 81.6308594,3.20800781 C82.4707031,3.20800781 82.9541016,3.87207031 82.9541016,4.99511719 L82.9541016,5.00488281 C82.9541016,6.12792969 82.4755859,6.78710938 81.6308594,6.78710938 Z" id="Shape"></path>
                                <path d="M85.4199219,7.66601562 L86.6357422,7.66601562 L86.6357422,4.56542969 C86.6357422,3.80371094 87.1679688,3.3203125 87.9785156,3.3203125 C88.1884766,3.3203125 88.3886719,3.34960938 88.5839844,3.38867188 L88.5839844,2.29980469 C88.4667969,2.265625 88.2763672,2.24121094 88.0908203,2.24121094 C87.3876953,2.24121094 86.8994141,2.578125 86.71875,3.14941406 L86.6357422,3.14941406 L86.6357422,2.32910156 L85.4199219,2.32910156 L85.4199219,7.66601562 Z" id="Path"></path>
                                <path d="M91.8603516,7.7734375 C93.3105469,7.7734375 94.0234375,6.93847656 94.1943359,6.25 L94.2089844,6.20605469 L93.0517578,6.20605469 L93.0371094,6.24023438 C92.9199219,6.484375 92.5439453,6.81640625 91.8847656,6.81640625 C91.0595703,6.81640625 90.5419922,6.25976562 90.5273438,5.30273438 L94.2578125,5.30273438 L94.2578125,4.90234375 C94.2578125,3.29101562 93.3203125,2.2265625 91.8017578,2.2265625 C90.2832031,2.2265625 89.3115234,3.32519531 89.3115234,5.00488281 L89.3115234,5.00976562 C89.3115234,6.70898438 90.2734375,7.7734375 91.8603516,7.7734375 Z M91.8164062,3.17871094 C92.4951172,3.17871094 92.9882812,3.61328125 93.0712891,4.48730469 L90.5371094,4.48730469 C90.6298828,3.63769531 91.1376953,3.17871094 91.8164062,3.17871094 Z" id="Shape"></path>
                            </g>
                        </g>
                    </g>
                </g>
            </g>
        </g>
    </g>
</svg>